<svg xmlns="http://www.w3.org/2000/svg" viewBox="0 0 240 240" fill="none">
  <rect width="240" height="240" rx="28" fill="white"/>
  <rect x="37" y="20" width="166" height="150" rx="24" fill="#D91F26"/>
  <path d="M120 25V51" stroke="white" stroke-width="8.5" stroke-linecap="round"/>
  <circle cx="120" cy="56" r="13.5" fill="white"/>
  <circle cx="120" cy="89" r="33.5" stroke="white" stroke-width="10.5"/>
  <path d="M108 89H142" stroke="white" stroke-width="10.5" stroke-linecap="round"/>
  <path d="M120 107V174" stroke="white" stroke-width="10.5" stroke-linecap="round"/>
  <path d="M79 170C79 148.461 96.4609 131 118 131H122C143.539 131 161 148.461 161 170V196H79V170Z" stroke="white" stroke-width="10.5"/>
  <path d="M75 170V184" stroke="white" stroke-width="10.5" stroke-linecap="round"/>
  <path d="M120 170V184" stroke="white" stroke-width="10.5" stroke-linecap="round"/>
  <path d="M165 170V184" stroke="white" stroke-width="10.5" stroke-linecap="round"/>
  <g fill="#D91F26">
    <rect x="35" y="184" width="34" height="6.5" rx="3.25"/>
    <text x="78" y="210" font-size="39" font-weight="700" font-family="PingFang SC, Hiragino Sans GB, Microsoft YaHei, Arial, sans-serif">网</text>
    <text x="126" y="210" font-size="39" font-weight="700" font-family="PingFang SC, Hiragino Sans GB, Microsoft YaHei, Arial, sans-serif">通</text>
    <text x="173" y="210" font-size="39" font-weight="700" font-family="PingFang SC, Hiragino Sans GB, Microsoft YaHei, Arial, sans-serif">办</text>
  </g>
</svg>
